<?xml version="1.0" encoding="UTF-8" standalone="no"?>
<!-- Created with Inkscape (http://www.inkscape.org/) -->

<svg
   width="500mm"
   height="500mm"
   viewBox="0 0 500 500"
   version="1.1"
   id="svg1"
   inkscape:version="1.3 (0e150ed, 2023-07-21)"
   sodipodi:docname="logo.svg"
   xmlns:inkscape="http://www.inkscape.org/namespaces/inkscape"
   xmlns:sodipodi="http://sodipodi.sourceforge.net/DTD/sodipodi-0.dtd"
   xmlns="http://www.w3.org/2000/svg"
   xmlns:svg="http://www.w3.org/2000/svg">
  <sodipodi:namedview
     id="namedview1"
     pagecolor="#ffffff"
     bordercolor="#eeeeee"
     borderopacity="1"
     inkscape:showpageshadow="0"
     inkscape:pageopacity="0"
     inkscape:pagecheckerboard="0"
     inkscape:deskcolor="#d1d1d1"
     inkscape:document-units="mm"
     inkscape:zoom="0.2102413"
     inkscape:cx="994.09582"
     inkscape:cy="1036.9038"
     inkscape:current-layer="layer1" />
  <defs
     id="defs1" />
  <g
     inkscape:label="Layer 1"
     inkscape:groupmode="layer"
     id="layer1">
    <path
       d="m 112.33785,209.70481 c -1.28859,0.65325 -2.58677,1.28127 -3.89435,1.88516 -1.30758,0.60388 -2.62476,1.18338 -3.95014,1.74021 -1.32539,0.55683 -2.65928,1.09093 -4.00131,1.603 -1.342023,0.51206 -2.691888,1.00242 -4.049358,1.472 -1.357485,0.46957 -2.722575,0.91858 -4.094325,1.34797 -1.371765,0.42941 -2.75055,0.83943 -4.13541,1.23095 -2.76972,0.783 -5.564265,1.49265 -8.37933,2.13784 -2.815065,0.64521 -5.65083,1.2261 -8.501805,1.75184 -2.85099,0.52573 -5.717355,0.99624 -8.594835,1.42084 -2.87748,0.42461 -5.76615,0.80307 -8.6607,1.14489 -2.894565,0.34182 -5.794935,0.64659 -8.69715,0.92397 0.517965,0.36356 1.0437,0.70556 1.5813,1.02941 0.5376,0.32383 1.08663,0.62947 1.65261,0.92164 1.131945,0.58434 2.329725,1.11344 3.62769,1.61928 1.29795,0.50583 2.69679,0.98895 4.23075,1.48053 1.53396,0.49158 3.20316,0.99167 5.043105,1.53324 l -31.452348,6.28023 c -0.254835,0.19338 -0.456225,0.40019 -0.60849,0.6147 -0.152265,0.21452 -0.255735,0.43713 -0.313935,0.6612 -0.0582,0.22406 -0.07155,0.45005 -0.04425,0.67205 0.0273,0.222 0.09555,0.43968 0.199995,0.64803 0.1044,0.20833 0.245595,0.4068 0.418575,0.58987 0.17298,0.18309 0.37779,0.35064 0.610815,0.49688 0.233025,0.14625 0.493665,0.2712 0.778245,0.36897 0.28458,0.0978 0.593235,0.16848 0.92088,0.20619 2.008515,-0.15092 3.976578,-0.2756 5.907393,-0.37517 1.930815,-0.0996 3.824415,-0.17397 5.684925,-0.22402 1.86051,-0.0501 3.687315,-0.0759 5.48493,-0.0783 1.797615,-0.003 3.566085,0.0185 5.3082,0.0619 1.74213,0.0435 3.45837,0.1101 5.15241,0.19765 1.694025,0.0876 3.365715,0.19653 5.019075,0.32634 1.653345,0.12975 3.28815,0.28013 4.908225,0.45036 1.620075,0.17024 3.225645,0.36014 4.81986,0.56897 3.188415,0.41764 6.33207,0.91087 9.46143,1.47199 3.129375,0.56112 6.244275,1.19049 9.373845,1.88051 3.12957,0.69003 6.273975,1.44046 9.462988,2.24482 3.18902,0.80436 6.42272,1.66238 9.73043,2.56652 z"
       style="fill:#808080;fill-rule:evenodd;stroke-width:2.0475"
       id="path34-2" />
    <path
       d="m 134.16286,197.86678 -18.64149,10.11101 v 109.88863 h 29.99972 v -60.00021 c 1.03554,2e-5 2.05873,-0.0527 3.06726,-0.15502 1.00851,-0.10245 2.00241,-0.25445 2.97888,-0.45425 0.97647,-0.1998 1.93563,-0.44731 2.87502,-0.73948 0.93939,-0.29217 1.85913,-0.62895 2.75641,-1.00847 0.8973,-0.37951 1.77216,-0.80166 2.62233,-1.26349 0.85017,-0.46182 1.67547,-0.96312 2.47349,-1.50222 0.79801,-0.53912 1.56832,-1.11566 2.30916,-1.72704 0.74083,-0.61137 1.45225,-1.25771 2.13088,-1.93631 0.67863,-0.67861 1.32492,-1.39006 1.93632,-2.13088 0.61139,-0.74082 1.18788,-1.51116 1.72703,-2.30916 0.53913,-0.798 1.04038,-1.62333 1.50223,-2.47349 0.46184,-0.85015 0.88395,-1.72504 1.26348,-2.62233 0.37953,-0.89728 0.71705,-1.81702 1.00925,-2.75641 0.29218,-0.93939 0.53889,-1.89855 0.73872,-2.87502 0.19981,-0.97647 0.35257,-1.97037 0.45501,-2.9789 0.10245,-1.00851 0.15501,-2.0317 0.15502,-3.06724 -1e-5,-1.03554 -0.0526,-2.05875 -0.15502,-3.06726 -0.10245,-1.00851 -0.2552,-2.00243 -0.45501,-2.97888 -0.19983,-0.97647 -0.44654,-1.93563 -0.73872,-2.87502 -0.2922,-0.93939 -0.62972,-1.85915 -1.00925,-2.75643 -0.37953,-0.89729 -0.80164,-1.77216 -1.26348,-2.62232 -0.46185,-0.85015 -0.9631,-1.67548 -1.50223,-2.47348 -0.53915,-0.79802 -1.11564,-1.56836 -1.72703,-2.30918 -0.6114,-0.74082 -1.25769,-1.45225 -1.93632,-2.13087 -0.67863,-0.67861 -1.39005,-1.32417 -2.13088,-1.93554 -0.74084,-0.61137 -1.51115,-1.18791 -2.30916,-1.72702 -0.79802,-0.53912 -1.62332,-1.0412 -2.47349,-1.50302 -0.85017,-0.46182 -1.72503,-0.88398 -2.62233,-1.26348 -0.89728,-0.37951 -1.81702,-0.71631 -2.75641,-1.00846 -0.93939,-0.29217 -1.89855,-0.5397 -2.87502,-0.7395 -0.97647,-0.1998 -1.97037,-0.35183 -2.97888,-0.45423 -1.00853,-0.10245 -2.03172,-0.15506 -3.06726,-0.15503 z"
       style="fill:#4d4d4d;fill-rule:evenodd;stroke-width:2.0475"
       id="path33-8" />
    <path
       d="m 172.22101,149.86971 c -0.87283,0.024 -1.76116,0.1212 -2.65798,0.2992 -0.44841,0.0889 -0.89927,0.19808 -1.35108,0.32867 -0.4518,0.13065 -0.90459,0.28233 -1.35806,0.45655 -0.45346,0.17423 -0.90775,0.37074 -1.36116,0.59067 -0.45339,0.21992 -0.90568,0.46329 -1.35727,0.73097 -0.45159,0.26766 -0.90227,0.55998 -1.35032,0.87745 -0.44803,0.31748 -0.89358,0.66008 -1.33635,1.02941 -0.28531,0.23538 -0.55687,0.48948 -0.81622,0.76041 -0.25937,0.27094 -0.50699,0.55857 -0.74259,0.86274 -0.47123,0.60832 -0.89717,1.2811 -1.28675,2.00841 -0.38958,0.72729 -0.74244,1.50937 -1.06815,2.33706 -0.32571,0.8277 -0.62419,1.70119 -0.90382,2.61069 -0.27963,0.90951 -0.54011,1.855 -0.79142,2.82774 -0.25132,0.97273 -0.49327,1.97235 -0.73407,2.98974 -0.48159,2.03476 -0.95994,4.14037 -1.5061,6.24225 -0.27309,1.05094 -0.56313,2.10105 -0.87902,3.14089 -0.3159,1.03985 -0.65757,2.06949 -1.03405,3.07967 -0.37649,1.01016 -0.7877,2.00068 -1.24256,2.9626 -0.45486,0.96191 -0.95355,1.89545 -1.50456,2.79053 -0.55101,0.89508 -1.15432,1.75143 -1.81927,2.56108 -0.33246,0.40484 -0.68061,0.79823 -1.04489,1.17822 -0.36429,0.38 -0.74502,0.74711 -1.14334,1.09994 -0.39833,0.35283 -0.81419,0.69132 -1.24877,1.01466 -0.43458,0.32335 -0.88731,0.63166 -1.36038,0.9232 -0.47307,0.29154 -0.96598,0.56657 -1.47975,0.82398 -0.51378,0.25742 -1.04863,0.49683 -1.60533,0.7178 1.09874,-0.0556 2.16743,-0.0861 3.20678,-0.093 1.03936,-0.007 2.04931,0.0105 3.03082,0.0496 0.98151,0.0396 1.9343,0.10215 2.85951,0.18603 0.92523,0.0838 1.82318,0.18886 2.69364,0.31471 0.87047,0.12585 1.7136,0.27239 2.53086,0.43796 0.81725,0.16555 1.60868,0.35043 2.37426,0.55345 0.7656,0.20301 1.50533,0.42453 2.2208,0.66275 0.71548,0.23821 1.40662,0.49314 2.07352,0.76429 0.6669,0.27116 1.30947,0.55781 1.92935,0.85964 0.61986,0.30183 1.21696,0.61854 1.79136,0.94878 0.57438,0.33025 1.12603,0.67455 1.65648,1.03095 0.53044,0.3564 1.03977,0.72505 1.52782,1.10535 0.48804,0.38031 0.95504,0.77241 1.40223,1.17435 0.4472,0.40194 0.8742,0.81349 1.2821,1.23481 0.40789,0.42132 0.79647,0.85218 1.16659,1.29062 0.37013,0.43843 0.72185,0.88461 1.05575,1.33791 0.66781,0.90657 1.26459,1.84039 1.79679,2.79285 0.53221,0.95245 1.00026,1.92345 1.40922,2.9037 0.40896,0.98023 0.75924,1.97032 1.0573,2.96028 0.29805,0.98995 0.54384,1.98025 0.74336,2.96184 0.19953,0.98157 0.35253,1.95399 0.46587,2.90911 0.1134,0.95514 0.18682,1.89311 0.22633,2.80371 0.0394,0.91061 0.0453,1.7937 0.0232,2.6417 -0.0219,0.84799 -0.0716,1.66045 -0.14265,2.42776 0.63045,-1.43784 1.19381,-2.71821 1.69215,-3.89511 0.49835,-1.1769 0.93147,-2.25025 1.30224,-3.27267 0.37079,-1.02241 0.67934,-1.99444 0.92708,-2.96881 0.24775,-0.97437 0.43504,-1.95077 0.56431,-2.98353 0.1293,-1.03278 0.20018,-2.12157 0.21549,-3.31919 0.0153,-1.19761 -0.0254,-2.5045 -0.1194,-3.97339 -0.0941,-1.46891 -0.2421,-3.09959 -0.44106,-4.94622 -0.19896,-1.84662 -0.44872,-3.90912 -0.74802,-6.23993 -0.033,-0.89148 -0.099,-1.82265 -0.18835,-2.782 -0.0894,-0.95936 -0.2027,-1.9472 -0.32867,-2.95253 -0.25194,-2.01066 -0.55663,-4.09078 -0.83638,-6.15388 -0.27975,-2.06312 -0.53414,-4.10895 -0.68369,-6.04925 -0.0747,-0.97015 -0.1239,-1.91418 -0.1365,-2.82076 -0.012,-0.90659 0.012,-1.77563 0.0807,-2.59674 0.0693,-0.82112 0.18476,-1.59387 0.35579,-2.30762 0.0855,-0.35686 0.18457,-0.69882 0.2992,-1.02474 0.1146,-0.32592 0.24444,-0.63639 0.39068,-0.92862 0.14625,-0.29223 0.30882,-0.56662 0.48912,-0.82243 0.1803,-0.2558 0.37848,-0.49262 0.59532,-0.70926 0.21682,-0.21663 0.45264,-0.41283 0.70848,-0.58757 0.25582,-0.17472 0.53133,-0.32802 0.82863,-0.4581 0.2973,-0.13005 0.61606,-0.23743 0.9573,-0.32014 0.34125,-0.0827 0.70531,-0.141 1.09296,-0.17363 0.38764,-0.0326 0.79905,-0.0388 1.23558,-0.0186 0.43653,0.0202 0.89809,0.0675 1.38597,0.1434 0.48787,0.0759 1.00239,0.17973 1.54408,0.31394 0.5417,0.13425 1.11045,0.29848 1.70843,0.49377 1.19595,0.39054 2.50726,0.90598 3.94317,1.55725 -0.0345,-0.73954 -0.12735,-1.46706 -0.29766,-2.16963 -0.0852,-0.35128 -0.1899,-0.69616 -0.31626,-1.03327 -0.1263,-0.33711 -0.27408,-0.66633 -0.44648,-0.98598 -0.17241,-0.31965 -0.36894,-0.62972 -0.59221,-0.92862 -0.22328,-0.29892 -0.47369,-0.58707 -0.75267,-0.86198 -0.27899,-0.27489 -0.58677,-0.53685 -0.9263,-0.78444 -0.33954,-0.24759 -0.71052,-0.48063 -1.11544,-0.69763 -0.20819,-0.0858 -0.44297,-0.0897 -0.69762,-0.0387 -0.25467,0.0508 -0.5297,0.1563 -0.81933,0.28914 -0.5793,0.26565 -1.21707,0.64116 -1.86734,0.90613 -0.32514,0.13245 -0.65337,0.23736 -0.979,0.28758 -0.32565,0.0503 -0.64808,0.0458 -0.96273,-0.0411 -0.15734,-0.0433 -0.31266,-0.1074 -0.46509,-0.19533 -0.15243,-0.0879 -0.30195,-0.20025 -0.44804,-0.33951 -0.1461,-0.1392 -0.28879,-0.30561 -0.42711,-0.50307 -0.1383,-0.19746 -0.27241,-0.42583 -0.40152,-0.68833 0.47144,-0.61505 0.89777,-1.25288 1.42782,-1.83864 0.26502,-0.29289 0.5559,-0.57255 0.89142,-0.83019 0.33551,-0.25764 0.71564,-0.49308 1.15884,-0.69686 -0.22096,-0.58378 -0.50436,-1.15828 -0.84414,-1.71618 -0.33978,-0.55788 -0.73636,-1.09923 -1.18287,-1.61695 -0.4465,-0.51771 -0.94324,-1.01183 -1.4844,-1.4751 -0.54117,-0.46328 -1.12656,-0.89526 -1.75029,-1.28984 -0.62371,-0.39459 -1.28551,-0.7519 -1.97971,-1.06351 -0.69422,-0.31161 -1.42092,-0.57782 -2.17352,-0.7922 -0.75261,-0.21438 -1.53117,-0.37615 -2.33008,-0.47904 -0.79893,-0.1029 -1.61787,-0.14685 -2.45102,-0.12405 z m 3.72225,6.00583 c 0.35213,-3e-5 0.68784,0.0717 0.99296,0.20076 0.30513,0.129 0.57928,0.31572 0.81003,0.54648 0.23076,0.23076 0.41745,0.50492 0.54648,0.81003 0.129,0.30512 0.20079,0.64083 0.20076,0.99296 4e-5,0.35214 -0.0717,0.68785 -0.20076,0.99297 -0.129,0.30511 -0.31572,0.58005 -0.54648,0.81079 -0.23075,0.23076 -0.5049,0.41745 -0.81003,0.54648 -0.30512,0.129 -0.64083,0.20003 -0.99296,0.2 -0.35212,3e-5 -0.68784,-0.071 -0.99297,-0.2 -0.30511,-0.129 -0.58005,-0.31572 -0.81079,-0.54648 -0.23076,-0.23074 -0.41745,-0.50568 -0.54648,-0.81079 -0.129,-0.30512 -0.20003,-0.64083 -0.2,-0.99297 -3e-5,-0.35213 0.0709,-0.68784 0.2,-0.99296 0.129,-0.30511 0.31572,-0.57927 0.54648,-0.81003 0.23074,-0.23076 0.50568,-0.41743 0.81079,-0.54648 0.30512,-0.129 0.64085,-0.20079 0.99297,-0.20076 z"
       style="fill:#808080;fill-rule:evenodd;stroke-width:2.0475"
       id="path32-44" />
    <text
       xml:space="preserve"
       style="font-weight:300;font-size:98.425px;line-height:0.9;font-family:Helvetica;-inkscape-font-specification:'Helvetica Light';letter-spacing:0.396874px;word-spacing:0px;fill:#4d4d4d;fill-rule:evenodd;stroke-width:2.0475"
       x="171.25156"
       y="318.39249"
       id="text27-8"><tspan
         id="tspan27-0"
         style="font-style:normal;font-variant:normal;font-weight:bold;font-stretch:normal;font-size:98.425px;font-family:Helvetica;-inkscape-font-specification:'Helvetica Bold';fill:#4d4d4d;stroke-width:2.0475"
         x="171.25156"
         y="318.39249">igeon</tspan></text>
  </g>
</svg>
